<?xml version="1.0" encoding="UTF-8"?>
<!DOCTYPE svg PUBLIC "-//W3C//DTD SVG 1.1//EN" "http://www.w3.org/Graphics/SVG/1.1/DTD/svg11.dtd">
<svg xmlns="http://www.w3.org/2000/svg" version="1.1" width="2904px" height="2088px" style="shape-rendering:geometricPrecision; text-rendering:geometricPrecision; image-rendering:optimizeQuality; fill-rule:evenodd; clip-rule:evenodd" xmlns:xlink="http://www.w3.org/1999/xlink">
<g><path style="opacity:0.941" fill="#080505" d="M 2903.5,1442.5 C 2903.5,1451.17 2903.5,1459.83 2903.5,1468.5C 2899.19,1486.15 2888.52,1491.32 2871.5,1484C 2863.46,1479.95 2855.96,1475.12 2849,1469.5C 2805.09,1545.91 2739.92,1593.74 2653.5,1613C 2613.95,1619.59 2574.28,1620.25 2534.5,1615C 2453.84,1606.89 2374.5,1591.89 2296.5,1570C 2261.58,1559.92 2228.58,1545.59 2197.5,1527C 2179.49,1515.5 2165.49,1500.33 2155.5,1481.5C 2127.12,1481.15 2100.12,1474.65 2074.5,1462C 2069.21,1458.77 2064.38,1454.94 2060,1450.5C 2057.49,1461.89 2054.65,1473.22 2051.5,1484.5C 2051.83,1485.17 2052.17,1485.83 2052.5,1486.5C 2100.92,1507.38 2148.59,1529.88 2195.5,1554C 2232.06,1573.56 2258.56,1602.39 2275,1640.5C 2278.67,1649.83 2282.33,1659.17 2286,1668.5C 2291.99,1717.04 2296.65,1765.71 2300,1814.5C 2303.35,1849.86 2300.02,1884.52 2290,1918.5C 2281.66,1936.69 2269.83,1952.19 2254.5,1965C 2239.08,1976.13 2222.75,1977.46 2205.5,1969C 2192.96,1964.82 2182.13,1957.98 2173,1948.5C 2160.38,1929.97 2152.04,1909.64 2148,1887.5C 2143.44,1839.22 2139.44,1790.89 2136,1742.5C 2137.24,1723.91 2131.41,1708.07 2118.5,1695C 2107.07,1686.46 2094.74,1679.79 2081.5,1675C 2103.54,1697.39 2117.04,1724.23 2122,1755.5C 2123.77,1766.43 2124.94,1777.43 2125.5,1788.5C 2119.86,1840.17 2112.02,1891.5 2102,1942.5C 2096.67,1969.17 2086.67,1993.84 2072,2016.5C 2063.39,2026.11 2053.89,2034.61 2043.5,2042C 2027.26,2052.61 2011.59,2051.94 1996.5,2040C 1987.23,2034.07 1980.07,2026.24 1975,2016.5C 1968.19,1997.4 1965.52,1977.73 1967,1957.5C 1972.77,1913.19 1979.77,1868.85 1988,1824.5C 1993.46,1806.49 1990.46,1790.16 1979,1775.5C 1967.51,1763.33 1954.84,1752.66 1941,1743.5C 1948.32,1756.14 1954.65,1769.48 1960,1783.5C 1967.37,1805 1969.37,1827 1966,1849.5C 1963.58,1863.86 1959.91,1877.86 1955,1891.5C 1928.82,1934.53 1901.16,1976.53 1872,2017.5C 1860.88,2031.62 1848.71,2044.79 1835.5,2057C 1814.38,2074.87 1790.05,2085.04 1762.5,2087.5C 1759.17,2087.5 1755.83,2087.5 1752.5,2087.5C 1743.32,2086.83 1734.99,2083.66 1727.5,2078C 1716.69,2066.88 1708.52,2054.04 1703,2039.5C 1701.69,2016.08 1706.69,1994.08 1718,1973.5C 1745.67,1932.17 1773.33,1890.83 1801,1849.5C 1805.07,1841.28 1806.4,1832.61 1805,1823.5C 1802.83,1816.15 1799.83,1809.15 1796,1802.5C 1788.83,1790.82 1781.16,1779.49 1773,1768.5C 1750.61,1741.11 1727.11,1714.61 1702.5,1689C 1640.62,1693.71 1578.62,1696.21 1516.5,1696.5C 1433.77,1696.47 1351.11,1694.3 1268.5,1690C 1211.16,1686.96 1154.32,1680.13 1098,1669.5C 1088.52,1701.08 1079.19,1732.74 1070,1764.5C 1056.68,1773.13 1042.85,1780.97 1028.5,1788C 1053.32,1857.48 1089.15,1920.65 1136,1977.5C 1158.96,2003.47 1182.3,2029.13 1206,2054.5C 1206.69,2055.33 1206.52,2056 1205.5,2056.5C 1159.88,2045.51 1114.21,2034.68 1068.5,2024C 1010.19,2001.86 956.855,1971.53 908.5,1933C 889.833,1917 871.167,1901 852.5,1885C 839.568,1886.06 833.068,1880.23 833,1867.5C 842.823,1831.21 852.489,1794.88 862,1758.5C 868.112,1743.61 875.279,1729.28 883.5,1715.5C 883.333,1715.17 883.167,1714.83 883,1714.5C 877.522,1715.2 872.022,1716.03 866.5,1717C 866.957,1717.41 867.291,1717.91 867.5,1718.5C 846.898,1760.8 829.731,1804.47 816,1849.5C 808.411,1877.11 802.744,1905.11 799,1933.5C 795.59,1967.51 792.09,2001.51 788.5,2035.5C 764.747,1993.66 741.247,1951.66 718,1909.5C 696.347,1852.07 683.181,1792.74 678.5,1731.5C 670.802,1729.8 666.135,1725.14 664.5,1717.5C 664.875,1715.54 665.541,1713.71 666.5,1712C 664.831,1711.88 663.165,1712.21 661.5,1713C 619.04,1732.71 579.373,1756.71 542.5,1785C 520.667,1802.17 498.833,1819.33 477,1836.5C 490.291,1789.62 504.625,1742.95 520,1696.5C 534.28,1668.26 551.78,1642.26 572.5,1618.5C 565.623,1615.71 558.623,1613.21 551.5,1611C 543.186,1605.64 541.353,1598.47 546,1589.5C 548.234,1587.3 550.734,1585.47 553.5,1584C 586.833,1565.67 620.167,1547.33 653.5,1529C 695.5,1517 737.5,1505 779.5,1493C 792.289,1490.54 804.956,1487.87 817.5,1485C 811.69,1470.93 807.19,1456.43 804,1441.5C 796.499,1452.65 786.332,1460.49 773.5,1465C 745.044,1477.2 715.378,1482.87 684.5,1482C 672.313,1480.63 663.646,1474.46 658.5,1463.5C 657.667,1463.17 656.833,1462.83 656,1462.5C 493.367,1491.11 329.867,1513.28 165.5,1529C 147.833,1529.67 130.167,1529.67 112.5,1529C 89.9392,1528.48 69.2725,1522.14 50.5,1510C 33.7634,1494.79 27.5967,1475.96 32,1453.5C 37.1139,1423.43 50.9472,1398.26 73.5,1378C 43.1392,1364.31 20.6392,1342.47 6,1312.5C 3.02775,1304.93 0.861084,1297.26 -0.5,1289.5C -0.5,1285.17 -0.5,1280.83 -0.5,1276.5C 3.49226,1257.3 13.4923,1241.8 29.5,1230C 57.4409,1212.03 87.4409,1198.37 119.5,1189C 180.492,1172.11 242.659,1163.94 306,1164.5C 426.953,1165.15 541.62,1192.15 650,1245.5C 650.496,1239.33 653.662,1235.17 659.5,1233C 664.904,1232.23 670.238,1232.56 675.5,1234C 686.684,1239.42 697.017,1246.09 706.5,1254C 721.468,1267.3 736.134,1280.97 750.5,1295C 763.462,1305.63 776.129,1316.63 788.5,1328C 790.37,1329.37 792.37,1330.53 794.5,1331.5C 800.787,1227.69 847.453,1148.19 934.5,1093C 949.995,1083.53 965.995,1074.86 982.5,1067C 961.208,1052.72 942.041,1035.88 925,1016.5C 906.365,992.181 889.698,966.514 875,939.5C 868.882,924.264 864.215,908.598 861,892.5C 855.24,857.848 849.574,823.181 844,788.5C 837.484,747.289 825.151,707.956 807,670.5C 800.104,659.603 792.438,649.27 784,639.5C 764.525,619.693 744.692,600.193 724.5,581C 717.109,575.277 709.443,569.944 701.5,565C 680.833,555.333 660.167,545.667 639.5,536C 622.694,527.865 608.194,516.698 596,502.5C 589.333,493.833 582.667,485.167 576,476.5C 574.026,476.353 572.026,476.019 570,475.5C 542.667,432.167 515.333,388.833 488,345.5C 471.2,318.015 455.2,290.015 440,261.5C 404.458,234.097 381.791,198.43 372,154.5C 368.973,137.373 368.806,120.373 371.5,103.5C 371.5,109.833 371.5,116.167 371.5,122.5C 385.207,128.89 397.373,126.557 408,115.5C 415.059,104.596 416.392,92.9296 412,80.5C 407.156,71.6738 399.656,66.8405 389.5,66C 388.874,65.2496 388.374,64.4162 388,63.5C 383.973,68.8958 380.473,74.5624 377.5,80.5C 388.216,49.6133 408.549,27.4466 438.5,14C 466.684,2.1428 496.018,-2.19053 526.5,1C 565.206,4.43813 597.706,20.2715 624,48.5C 633.398,59.6316 642.065,71.2983 650,83.5C 680.285,135.739 704.285,190.739 722,248.5C 739.606,284.712 756.939,321.045 774,357.5C 784.635,367.807 796.135,376.974 808.5,385C 832.153,397.158 855.486,409.825 878.5,423C 893.517,432.841 908.184,443.175 922.5,454C 935.667,465.833 948.167,478.333 960,491.5C 974.333,510.833 988.667,530.167 1003,549.5C 1015.03,578.905 1025.37,608.905 1034,639.5C 1037.86,655.639 1040.52,671.973 1042,688.5C 1043.03,706.174 1043.7,723.841 1044,741.5C 1048.2,760.78 1055.54,778.78 1066,795.5C 1093,827.167 1120,858.833 1147,890.5C 1167.41,915.267 1185.08,941.933 1200,970.5C 1205.6,982.026 1209.77,994.026 1212.5,1006.5C 1270.91,998.799 1329.58,993.966 1388.5,992C 1463.54,988.254 1538.54,988.921 1613.5,994C 1648.97,996.496 1684.14,1001 1719,1007.5C 1721.11,994.833 1726.11,983.5 1734,973.5C 1756.83,948.667 1779.67,923.833 1802.5,899C 1777.02,871.89 1758.85,840.39 1748,804.5C 1737.05,755.898 1753.22,719.398 1796.5,695C 1822.74,680.809 1850.74,672.476 1880.5,670C 1950.37,648.359 2016.7,656.359 2079.5,694C 2105.05,709.881 2125.55,730.714 2141,756.5C 2155.86,785.403 2156.19,814.403 2142,843.5C 2137.41,850.92 2131.91,857.586 2125.5,863.5C 2120.04,896.612 2103.04,921.778 2074.5,939C 2031.04,963.225 1984.54,972.725 1935,967.5C 1933.56,967.559 1932.23,967.892 1931,968.5C 1928.07,974.952 1925.74,981.618 1924,988.5C 1920,1006.5 1916,1024.5 1912,1042.5C 1910.84,1053.68 1911.67,1064.68 1914.5,1075.5C 1997.82,1126.7 2046.65,1201.04 2061,1298.5C 2063.19,1314.45 2064.86,1330.45 2066,1346.5C 2081.26,1334.58 2095.92,1321.91 2110,1308.5C 2118.4,1296.1 2127.57,1284.26 2137.5,1273C 2142.21,1269.51 2146.71,1269.68 2151,1273.5C 2170.97,1257.59 2193.13,1245.43 2217.5,1237C 2256.89,1223.07 2297.22,1212.74 2338.5,1206C 2424.95,1192.1 2511.95,1185.1 2599.5,1185C 2699.56,1188.12 2781.39,1227.95 2845,1304.5C 2876.85,1345.2 2896.35,1391.2 2903.5,1442.5 Z M 2733.5,1386.5 C 2749.9,1389.87 2764.23,1397.2 2776.5,1408.5C 2759.44,1423.53 2740.11,1434.86 2718.5,1442.5C 2716.91,1428.41 2717.41,1414.41 2720,1400.5C 2721.72,1392.95 2726.22,1388.28 2733.5,1386.5 Z M 2564.5,1397.5 C 2577.89,1397.03 2589.89,1400.86 2600.5,1409C 2590.52,1416.41 2579.35,1420.91 2567,1422.5C 2558.06,1421.95 2550.89,1418.11 2545.5,1411C 2550.56,1404.49 2556.9,1399.99 2564.5,1397.5 Z M 2376.5,1401.5 C 2390.13,1400.56 2403.47,1402.06 2416.5,1406C 2403.71,1407.71 2391.04,1406.88 2378.5,1403.5C 2377.29,1403.25 2376.62,1402.59 2376.5,1401.5 Z"/></g>
<g><path style="opacity:1" fill="#feda9b" d="M 489.5,5.5 C 523.778,2.65587 556.112,9.15587 586.5,25C 611.42,41.0223 631.254,61.8557 646,87.5C 674.977,137.758 698.144,190.591 715.5,246C 703.473,264.715 689.139,281.715 672.5,297C 627.71,338.064 575.377,364.897 515.5,377.5C 490.086,339.027 466.419,299.36 444.5,258.5C 434.573,250.076 425.073,241.076 416,231.5C 390.413,201.981 376.746,167.647 375,128.5C 389.973,133.418 402.64,129.752 413,117.5C 419.11,107.684 421.11,97.0174 419,85.5C 415.284,71.7831 406.45,63.6164 392.5,61C 411.451,33.4309 437.451,16.0976 470.5,9C 476.972,7.81257 483.306,6.6459 489.5,5.5 Z"/></g>
<g><path style="opacity:1" fill="#0e0d0b" d="M 532.5,60.5 C 553.975,58.8026 567.808,68.1359 574,88.5C 575.372,117.462 561.538,131.629 532.5,131C 511.635,124.443 502.469,110.277 505,88.5C 509.003,73.9975 518.17,64.6642 532.5,60.5 Z"/></g>
<g><path style="opacity:1" fill="#f6f6f6" d="M 371.5,103.5 C 371.893,95.3353 373.893,87.6687 377.5,80.5C 380.473,74.5624 383.973,68.8958 388,63.5C 388.374,64.4162 388.874,65.2496 389.5,66C 399.656,66.8405 407.156,71.6738 412,80.5C 416.392,92.9296 415.059,104.596 408,115.5C 397.373,126.557 385.207,128.89 371.5,122.5C 371.5,116.167 371.5,109.833 371.5,103.5 Z"/></g>
<g><path style="opacity:1" fill="#f8f8f8" d="M 532.5,65.5 C 558.058,64.8903 570.225,77.2236 569,102.5C 563.577,119.91 551.744,127.743 533.5,126C 514.832,119.838 506.999,107.005 510,87.5C 514.083,76.5828 521.583,69.2494 532.5,65.5 Z"/></g>
<g><path style="opacity:1" fill="#030303" d="M 382.5,76.5 C 393.95,78.4571 400.95,84.9571 403.5,96C 402.514,107.321 396.347,113.821 385,115.5C 380.841,114.921 377.175,113.254 374,110.5C 372.99,98.1922 375.824,86.8588 382.5,76.5 Z"/></g>
<g><path style="opacity:1" fill="#040404" d="M 534.5,76.5 C 551.586,75.6009 559.419,83.6009 558,100.5C 554.534,111.488 547.034,116.321 535.5,115C 521.224,109.515 517.057,99.6819 523,85.5C 526.045,81.4057 529.878,78.4057 534.5,76.5 Z"/></g>
<g><path style="opacity:1" fill="#120f0b" d="M 460.5,158.5 C 492.715,156.276 517.715,168.443 535.5,195C 534.086,196.548 532.42,197.215 530.5,197C 509.149,167.237 480.815,157.571 445.5,168C 440.008,170.579 434.675,173.412 429.5,176.5C 426.177,175.062 425.844,173.229 428.5,171C 438.496,164.825 449.162,160.658 460.5,158.5 Z"/></g>
<g><path style="opacity:1" fill="#fefefe" d="M 717.5,253.5 C 720.122,256.824 722.289,260.49 724,264.5C 738.684,295.524 753.018,326.524 767,357.5C 716.74,419.061 652.24,456.561 573.5,470C 554.969,440.967 536.636,411.8 518.5,382.5C 600.867,363.842 667.2,320.842 717.5,253.5 Z"/></g>
<g><path style="opacity:1" fill="#feda9b" d="M 769.5,361.5 C 780.43,371.596 792.097,380.763 804.5,389C 826.007,400.921 847.674,412.588 869.5,424C 899.865,441.632 927.031,463.465 951,489.5C 954.536,493.415 957.703,497.581 960.5,502C 945.433,521.735 927.766,538.735 907.5,553C 880.886,571.813 852.553,587.813 822.5,601C 805.538,607.782 788.038,612.615 770,615.5C 768.775,615.138 767.609,614.638 766.5,614C 754.138,601.304 741.471,588.97 728.5,577C 721.676,571.755 714.676,566.755 707.5,562C 683.782,550.867 660.116,539.533 636.5,528C 630.335,523.75 624.002,519.75 617.5,516C 604.251,503.251 592.251,489.418 581.5,474.5C 649.876,460.572 708.043,428.572 756,378.5C 760.99,373.167 765.49,367.5 769.5,361.5 Z"/></g>
<g><path style="opacity:1" fill="#fdfdfd" d="M 963.5,506.5 C 975.47,521.983 987.303,537.649 999,553.5C 1006.27,573.128 1013.43,592.795 1020.5,612.5C 1016.02,618.813 1010.69,624.313 1004.5,629C 983.882,643.591 962.215,656.591 939.5,668C 913.134,682.016 886.134,694.683 858.5,706C 849.322,709.128 839.988,711.628 830.5,713.5C 824.499,697.004 817.999,680.67 811,664.5C 799.833,649.5 788.667,634.5 777.5,619.5C 803.487,614.338 828.154,605.504 851.5,593C 887.065,574.473 919.565,551.64 949,524.5C 954.426,518.915 959.259,512.915 963.5,506.5 Z"/></g>
<g><path style="opacity:1" fill="#feda9b" d="M 1021.5,619.5 C 1022.59,619.62 1023.25,620.287 1023.5,621.5C 1034.97,659.632 1039.81,698.632 1038,738.5C 1040.06,749.424 1043.06,760.091 1047,770.5C 1051.15,779.797 1055.49,788.797 1060,797.5C 1038.78,826.663 1012.62,850.163 981.5,868C 947.336,889.749 910.336,904.249 870.5,911.5C 862.862,873.076 856.362,834.409 851,795.5C 846.449,770.188 840.616,745.188 833.5,720.5C 833.833,719.833 834.167,719.167 834.5,718.5C 849.071,714.365 863.404,709.532 877.5,704C 916.206,686.148 953.873,666.482 990.5,645C 1002.01,637.915 1012.34,629.415 1021.5,619.5 Z"/></g>
<g><path style="opacity:1" fill="#fdfdfd" d="M 1945.5,662.5 C 2003.46,662.761 2055.12,680.594 2100.5,716C 2118.23,730.713 2131.73,748.547 2141,769.5C 2155.19,811.247 2144.36,844.747 2108.5,870C 2080.86,885.932 2051.03,893.765 2019,893.5C 1952.75,892.692 1896.75,868.692 1851,821.5C 1837.24,805.975 1828.24,787.975 1824,767.5C 1820.28,732.434 1833.12,705.268 1862.5,686C 1888.19,670.83 1915.86,662.997 1945.5,662.5 Z"/></g>
<g><path style="opacity:1" fill="#d80062" d="M 1860.5,677.5 C 1862.53,677.338 1864.53,677.505 1866.5,678C 1820.06,705.976 1807.23,745.142 1828,795.5C 1840.56,819.06 1857.73,838.56 1879.5,854C 1935.76,892.433 1997.42,905.433 2064.5,893C 2084.33,888.997 2102.17,880.831 2118,868.5C 2113.41,893.825 2100.58,913.992 2079.5,929C 2062.15,940.347 2043.48,949.013 2023.5,955C 1940.68,976.385 1868.85,957.218 1808,897.5C 1785.34,872.541 1768.01,844.208 1756,812.5C 1740.66,768.512 1751.83,733.012 1789.5,706C 1811.39,691.873 1835.06,682.373 1860.5,677.5 Z"/></g>
<g><path style="opacity:1" fill="#010101" d="M 1989.5,725.5 C 2020.43,724.196 2047.27,733.863 2070,754.5C 2079.31,764.098 2084.15,775.598 2084.5,789C 2083.66,804.511 2076.33,815.844 2062.5,823C 2019.27,838.317 1981.77,829.484 1950,796.5C 1930.71,763.544 1939.21,740.711 1975.5,728C 1980.31,727.197 1984.98,726.363 1989.5,725.5 Z"/></g>
<g><path style="opacity:1" fill="#fefefe" d="M 1062.5,801.5 C 1064.02,801.511 1065.18,802.177 1066,803.5C 1088,829.5 1110,855.5 1132,881.5C 1133.75,883.212 1134.42,885.212 1134,887.5C 1079.55,947.171 1013.05,987.671 934.5,1009C 931.773,1009.82 929.106,1009.65 926.5,1008.5C 914.528,990.696 902.362,973.029 890,955.5C 884.048,942.617 878.715,929.617 874,916.5C 930.935,903.781 981.769,878.947 1026.5,842C 1035.33,834.5 1043.5,826.333 1051,817.5C 1055.1,812.284 1058.93,806.951 1062.5,801.5 Z"/></g>
<g><path style="opacity:1" fill="#feda9b" d="M 1137.5,890.5 C 1138.24,890.369 1138.91,890.536 1139.5,891C 1164.76,919.629 1185.26,951.462 1201,986.5C 1212.05,1012.7 1213.38,1039.37 1205,1066.5C 1199.01,1081.16 1188.51,1090.99 1173.5,1096C 1152.75,1101.51 1131.75,1105.85 1110.5,1109C 1091.46,1115.21 1071.96,1119.38 1052,1121.5C 1037.51,1121.57 1025.18,1116.57 1015,1106.5C 1015.79,1102.75 1016.63,1098.92 1017.5,1095C 1016.88,1090.59 1015.04,1086.75 1012,1083.5C 994.438,1069.3 976.605,1055.47 958.5,1042C 948.833,1033.67 939.833,1024.67 931.5,1015C 1010.58,994.23 1078.08,954.397 1134,895.5C 1135,893.677 1136.16,892.01 1137.5,890.5 Z"/></g>
<g><path style="opacity:1" fill="#d80062" d="M 1805.5,903.5 C 1814.65,911.143 1823.98,918.643 1833.5,926C 1861.33,945.668 1891.99,958.835 1925.5,965.5C 1923.34,972.152 1921.17,978.819 1919,985.5C 1914.66,1004.86 1910.33,1024.19 1906,1043.5C 1905.33,1052.23 1905.83,1060.9 1907.5,1069.5C 1907.17,1070.17 1906.83,1070.83 1906.5,1071.5C 1849.79,1040.49 1789.46,1019.82 1725.5,1009.5C 1726.04,997.417 1730.21,986.75 1738,977.5C 1760.71,952.963 1783.21,928.296 1805.5,903.5 Z"/></g>
<g><path style="opacity:1" fill="#d90062" d="M 1443.5,995.5 C 1519.73,993.743 1595.73,996.91 1671.5,1005C 1735.32,1012.37 1796.99,1028.04 1856.5,1052C 1996.7,1113.12 2064.53,1220.62 2060,1374.5C 2058.67,1397.86 2057,1421.19 2055,1444.5C 2041.12,1534.02 1992.96,1597.18 1910.5,1634C 1865.77,1652.86 1819.44,1666.19 1771.5,1674C 1682.12,1686.68 1592.29,1692.18 1502,1690.5C 1391.22,1691.67 1280.72,1686.84 1170.5,1676C 1103.27,1669.22 1038.27,1653.56 975.5,1629C 936.826,1613.1 902.66,1590.6 873,1561.5C 831.133,1515.74 807.799,1461.74 803,1399.5C 786.061,1246.15 846.894,1136.99 985.5,1072C 987.167,1071.33 988.833,1071.33 990.5,1072C 997.982,1077.48 1004.82,1083.65 1011,1090.5C 1011.92,1092.03 1012.42,1093.7 1012.5,1095.5C 1011.5,1098.83 1010.5,1102.17 1009.5,1105.5C 1009.62,1107.79 1010.46,1109.79 1012,1111.5C 1027.87,1124.67 1046.03,1129.17 1066.5,1125C 1097.48,1116.67 1128.81,1110.01 1160.5,1105C 1193.18,1098.99 1211.34,1079.49 1215,1046.5C 1216,1034.73 1215.5,1023.07 1213.5,1011.5C 1290.02,1002.09 1366.69,996.756 1443.5,995.5 Z"/></g>
<g><path style="opacity:1" fill="#fdfdfd" d="M 40.5,1340.5 C 39.8333,1343.17 39.1667,1345.83 38.5,1348.5C 21.7324,1333.3 10.899,1314.63 6,1292.5C 3.3957,1270.2 10.8957,1252.04 28.5,1238C 52.0801,1221.04 77.7468,1208.04 105.5,1199C 159.201,1182.14 214.201,1172.8 270.5,1171C 379.974,1166.3 485.641,1183.97 587.5,1224C 609.309,1232.82 630.809,1242.32 652,1252.5C 652.998,1256.47 653.331,1260.47 653,1264.5C 642.801,1248.32 628.301,1242.48 609.5,1247C 589.861,1256.11 582.361,1271.28 587,1292.5C 594.434,1311.31 608.267,1319.47 628.5,1317C 642.63,1313.85 651.796,1305.35 656,1291.5C 658.478,1304.65 660.311,1317.98 661.5,1331.5C 660.007,1336.49 658.507,1341.49 657,1346.5C 656.833,1377.84 656.333,1409.17 655.5,1440.5C 592.741,1401.75 524.741,1377.58 451.5,1368C 425.189,1366.44 398.856,1366.11 372.5,1367C 301.806,1370.53 231.139,1374.53 160.5,1379C 140.807,1379.86 121.141,1379.53 101.5,1378C 100.833,1377.67 100.167,1377.33 99.5,1377C 115.774,1361.53 118.94,1343.7 109,1323.5C 102.131,1314.32 92.9641,1308.82 81.5,1307C 73.8359,1305.82 66.5026,1306.82 59.5,1310C 50.2479,1318.34 43.9146,1328.5 40.5,1340.5 Z"/></g>
<g><path style="opacity:1" fill="#040404" d="M 374.5,1185.5 C 383.998,1184.17 388.498,1188.17 388,1197.5C 385.611,1203.78 381.111,1205.94 374.5,1204C 369.581,1201.26 367.748,1197.09 369,1191.5C 370.36,1188.98 372.193,1186.98 374.5,1185.5 Z"/></g>
<g><path style="opacity:1" fill="#d90062" d="M 2543.5,1190.5 C 2590.1,1187.69 2636.1,1191.52 2681.5,1202C 2757.31,1224.83 2816.81,1269.33 2860,1335.5C 2884.31,1375.09 2896.98,1418.09 2898,1464.5C 2897.9,1471.53 2895.07,1477.03 2889.5,1481C 2886.17,1481.67 2882.83,1481.67 2879.5,1481C 2874.41,1478.96 2869.41,1476.62 2864.5,1474C 2841.29,1456.46 2818.96,1437.8 2797.5,1418C 2783.38,1406.11 2768.38,1395.44 2752.5,1386C 2731.65,1376.18 2718.48,1382.34 2713,1404.5C 2712.67,1422.83 2712.33,1441.17 2712,1459.5C 2710.86,1463.9 2709.53,1468.24 2708,1472.5C 2703.63,1478.27 2698.13,1479.77 2691.5,1477C 2685.17,1473.84 2679.17,1470.17 2673.5,1466C 2657.87,1452.03 2642.53,1437.7 2627.5,1423C 2618.12,1415.28 2608.45,1407.95 2598.5,1401C 2587.12,1393.8 2574.79,1391.14 2561.5,1393C 2550.92,1396.91 2542.75,1403.75 2537,1413.5C 2532.79,1421.26 2529.12,1429.26 2526,1437.5C 2521.46,1452.66 2516.46,1467.66 2511,1482.5C 2508.45,1489.56 2503.62,1493.89 2496.5,1495.5C 2492.49,1495.02 2489.32,1493.02 2487,1489.5C 2480,1474.17 2473,1458.83 2466,1443.5C 2446.42,1407.79 2416.25,1392.29 2375.5,1397C 2360.91,1398.25 2346.58,1400.92 2332.5,1405C 2310.82,1411.34 2289.16,1417.67 2267.5,1424C 2248.73,1428.49 2229.73,1430.16 2210.5,1429C 2203.59,1428.27 2196.92,1426.61 2190.5,1424C 2189.95,1401.2 2189.12,1378.36 2188,1355.5C 2177.13,1329.71 2165.96,1304.04 2154.5,1278.5C 2168.29,1266.76 2183.62,1257.26 2200.5,1250C 2240.1,1233.36 2281.1,1221.36 2323.5,1214C 2396.51,1201.87 2469.84,1194.03 2543.5,1190.5 Z M 2733.5,1386.5 C 2726.22,1388.28 2721.72,1392.95 2720,1400.5C 2717.41,1414.41 2716.91,1428.41 2718.5,1442.5C 2740.11,1434.86 2759.44,1423.53 2776.5,1408.5C 2764.23,1397.2 2749.9,1389.87 2733.5,1386.5 Z M 2564.5,1397.5 C 2556.9,1399.99 2550.56,1404.49 2545.5,1411C 2550.89,1418.11 2558.06,1421.95 2567,1422.5C 2579.35,1420.91 2590.52,1416.41 2600.5,1409C 2589.89,1400.86 2577.89,1397.03 2564.5,1397.5 Z M 2376.5,1401.5 C 2376.62,1402.59 2377.29,1403.25 2378.5,1403.5C 2391.04,1406.88 2403.71,1407.71 2416.5,1406C 2403.47,1402.06 2390.13,1400.56 2376.5,1401.5 Z"/></g>
<g><path style="opacity:1" fill="#0f0f0f" d="M 133.5,1207.5 C 162.043,1204.51 180.876,1216.51 190,1243.5C 193.361,1267.95 184.194,1285.78 162.5,1297C 139.412,1304.94 120.245,1299.44 105,1280.5C 97.9064,1269.51 95.5731,1257.51 98,1244.5C 102.904,1225.43 114.738,1213.1 133.5,1207.5 Z"/></g>
<g><path style="opacity:1" fill="#050505" d="M 304.5,1207.5 C 314.492,1206.33 318.992,1210.66 318,1220.5C 314.723,1226.11 309.89,1227.94 303.5,1226C 296.539,1219.31 296.872,1213.15 304.5,1207.5 Z"/></g>
<g><path style="opacity:1" fill="#fbfbfb" d="M 140.5,1211.5 C 171.739,1213.68 186.573,1230.35 185,1261.5C 177.621,1286.78 160.787,1297.95 134.5,1295C 108.648,1285.81 98.4818,1267.64 104,1240.5C 110.998,1224.26 123.164,1214.59 140.5,1211.5 Z"/></g>
<g><path style="opacity:1" fill="#080808" d="M 472.5,1214.5 C 481.848,1214.02 486.348,1218.35 486,1227.5C 481.104,1235.32 475.104,1236.32 468,1230.5C 464.975,1223.74 466.475,1218.41 472.5,1214.5 Z"/></g>
<g><path style="opacity:1" fill="#020202" d="M 402.5,1222.5 C 423.921,1220.78 437.754,1230.12 444,1250.5C 445.209,1271.92 435.376,1285.08 414.5,1290C 394.253,1290.76 381.753,1281.26 377,1261.5C 375.684,1242 384.184,1229 402.5,1222.5 Z"/></g>
<g><path style="opacity:1" fill="#040404" d="M 138.5,1228.5 C 158.33,1228.17 168.496,1237.83 169,1257.5C 164.844,1273.16 154.677,1280.33 138.5,1279C 123.796,1274.09 117.296,1263.93 119,1248.5C 122.008,1238.33 128.508,1231.66 138.5,1228.5 Z"/></g>
<g><path style="opacity:1" fill="#060606" d="M 576.5,1228.5 C 586.536,1228.03 590.702,1232.7 589,1242.5C 583.492,1250.09 577.492,1250.43 571,1243.5C 569.087,1236.97 570.92,1231.97 576.5,1228.5 Z"/></g>
<g><path style="opacity:1" fill="#0e0e0e" d="M 350.5,1236.5 C 356.766,1235.12 360.433,1237.45 361.5,1243.5C 360.871,1249.63 357.538,1252.13 351.5,1251C 345.281,1246.53 344.948,1241.7 350.5,1236.5 Z"/></g>
<g><path style="opacity:1" fill="#d90062" d="M 661.5,1237.5 C 666.412,1237.06 671.078,1237.9 675.5,1240C 683.003,1243.58 690.003,1247.91 696.5,1253C 723.5,1277.33 750.5,1301.67 777.5,1326C 782.475,1330.82 788.142,1334.66 794.5,1337.5C 796.566,1371.16 798.066,1404.82 799,1438.5C 795.167,1445 790,1450.17 783.5,1454C 759.145,1466.01 733.478,1473.68 706.5,1477C 693.747,1479.16 681.747,1477.16 670.5,1471C 665.415,1466.66 662.582,1461.16 662,1454.5C 661.333,1418.83 661.333,1383.17 662,1347.5C 663.819,1341.88 665.319,1336.22 666.5,1330.5C 662.602,1302.22 659.269,1273.88 656.5,1245.5C 656.546,1241.79 658.213,1239.13 661.5,1237.5 Z"/></g>
<g><path style="opacity:1" fill="#060606" d="M 527.5,1243.5 C 541.937,1242.1 547.77,1248.43 545,1262.5C 541.061,1268.37 535.561,1270.54 528.5,1269C 516.845,1260.92 516.512,1252.42 527.5,1243.5 Z"/></g>
<g><path style="opacity:1" fill="#0e0e0e" d="M 486.5,1253.5 C 493.319,1253.48 496.486,1256.82 496,1263.5C 493.928,1268.14 490.428,1269.64 485.5,1268C 481.876,1265.84 480.709,1262.67 482,1258.5C 483.025,1256.31 484.525,1254.65 486.5,1253.5 Z"/></g>
<g><path style="opacity:1" fill="#020202" d="M 272.5,1264.5 C 290.233,1261.61 302.733,1268.28 310,1284.5C 312.818,1310.44 301.318,1323.27 275.5,1323C 259.984,1318.82 251.984,1308.66 251.5,1292.5C 253.192,1279.09 260.192,1269.76 272.5,1264.5 Z"/></g>
<g><path style="opacity:1" fill="#d80062" d="M 2141.5,1276.5 C 2145.27,1275.82 2148.11,1277.16 2150,1280.5C 2161.29,1305.41 2172.29,1330.41 2183,1355.5C 2183.99,1358.42 2184.65,1361.42 2185,1364.5C 2185.67,1388.83 2185.67,1413.17 2185,1437.5C 2180.1,1461.24 2165.6,1474.24 2141.5,1476.5C 2117.47,1473.66 2094.8,1466.49 2073.5,1455C 2068.62,1451.79 2064.79,1447.62 2062,1442.5C 2062.84,1412.49 2064.18,1382.49 2066,1352.5C 2069.22,1350.81 2072.38,1348.97 2075.5,1347C 2088,1335.83 2100.5,1324.67 2113,1313.5C 2121.95,1300.72 2131.45,1288.39 2141.5,1276.5 Z"/></g>
<g><path style="opacity:1" fill="#090909" d="M 350.5,1279.5 C 356.766,1278.12 360.433,1280.45 361.5,1286.5C 360.647,1293.1 356.98,1295.27 350.5,1293C 345.209,1288.55 345.209,1284.05 350.5,1279.5 Z"/></g>
<g><path style="opacity:1" fill="#020202" d="M 515.5,1290.5 C 536.252,1287.45 550.752,1295.45 559,1314.5C 562.698,1329.88 558.864,1343.05 547.5,1354C 531.563,1364.26 515.896,1363.93 500.5,1353C 484.261,1334.32 484.594,1315.99 501.5,1298C 506.119,1295.17 510.786,1292.67 515.5,1290.5 Z"/></g>
<g><path style="opacity:1" fill="#0a0a0a" d="M 473.5,1295.5 C 482.315,1295.48 486.482,1299.81 486,1308.5C 483.457,1314.47 478.957,1316.64 472.5,1315C 466.975,1312.08 465.142,1307.58 467,1301.5C 468.914,1299.14 471.081,1297.14 473.5,1295.5 Z"/></g>
<g><path style="opacity:1" fill="#090909" d="M 376.5,1306.5 C 387.814,1305.85 391.98,1310.85 389,1321.5C 384.33,1327.21 378.996,1327.88 373,1323.5C 368.861,1316.6 370.027,1310.93 376.5,1306.5 Z"/></g>
<g><path style="opacity:1" fill="#fcfcfc" d="M 67.5,1311.5 C 80.6022,1310.48 92.1022,1314.15 102,1322.5C 111.303,1334.66 112.637,1347.66 106,1361.5C 102.734,1366.6 98.9002,1371.27 94.5,1375.5C 92.5787,1376.64 90.5787,1376.81 88.5,1376C 75.9668,1372.94 64.3002,1367.94 53.5,1361C 46.1721,1355.02 43.6721,1347.52 46,1338.5C 49.89,1329.21 55.39,1321.04 62.5,1314C 64.3146,1313.24 65.9812,1312.41 67.5,1311.5 Z"/></g>
<g><path style="opacity:1" fill="#0e0e0e" d="M 337.5,1323.5 C 347.855,1323.72 350.522,1328.22 345.5,1337C 336.894,1339.73 333.061,1336.57 334,1327.5C 334.69,1325.65 335.856,1324.32 337.5,1323.5 Z"/></g>
<g><path style="opacity:1" fill="#060606" d="M 431.5,1340.5 C 441.535,1340.03 445.702,1344.7 444,1354.5C 441.259,1359.42 437.092,1361.25 431.5,1360C 425.891,1356.72 424.058,1351.89 426,1345.5C 427.73,1343.6 429.563,1341.93 431.5,1340.5 Z"/></g>
<g><path style="opacity:1" fill="#0b0b0b" d="M 612.5,1340.5 C 618.629,1339.55 622.296,1342.05 623.5,1348C 622.261,1353.98 618.594,1356.32 612.5,1355C 607.214,1350.17 607.214,1345.34 612.5,1340.5 Z"/></g>
<g><path style="opacity:1" fill="#626262" d="M 40.5,1340.5 C 40.665,1343.85 40.4983,1347.18 40,1350.5C 39.2828,1349.96 38.7828,1349.29 38.5,1348.5C 39.1667,1345.83 39.8333,1343.17 40.5,1340.5 Z"/></g>
<g><path style="opacity:1" fill="#080808" d="M 302.5,1355.5 C 312.525,1354.73 315.525,1358.9 311.5,1368C 304.484,1371.45 300.151,1369.45 298.5,1362C 299.207,1359.41 300.541,1357.25 302.5,1355.5 Z"/></g>
<g><path style="opacity:1" fill="#6b6b6b" d="M 379.5,1371.5 C 375.833,1372.17 372.167,1372.83 368.5,1373.5C 367.957,1373.44 367.624,1373.11 367.5,1372.5C 371.445,1371.51 375.445,1371.18 379.5,1371.5 Z"/></g>
<g><path style="opacity:1" fill="#fdfdfd" d="M 379.5,1371.5 C 441.634,1367.6 501.634,1376.93 559.5,1399.5C 545.293,1405.25 540.127,1415.58 544,1430.5C 553.258,1445.52 565.424,1448.36 580.5,1439C 588.05,1430.3 589.384,1420.8 584.5,1410.5C 609.183,1420.01 632.849,1432.01 655.5,1446.5C 656.489,1450.11 656.823,1453.77 656.5,1457.5C 531.648,1478.76 406.315,1496.76 280.5,1511.5C 279.209,1511.74 278.209,1511.4 277.5,1510.5C 282.811,1507.51 283.811,1503.34 280.5,1498C 273.743,1494.67 269.409,1496.5 267.5,1503.5C 267.876,1507.26 269.876,1509.6 273.5,1510.5C 274.5,1511.17 275.5,1511.83 276.5,1512.5C 243.223,1516.44 209.889,1519.94 176.5,1523C 156.18,1524.29 135.846,1524.62 115.5,1524C 122.252,1516.51 125.086,1507.68 124,1497.5C 122.974,1494.76 121.474,1492.43 119.5,1490.5C 119.5,1489.83 119.833,1489.5 120.5,1489.5C 147.028,1501.48 168.528,1495.48 185,1471.5C 195.798,1446.58 190.632,1425.75 169.5,1409C 145.213,1395.91 124.046,1399.74 106,1420.5C 93.1652,1442.83 94.9985,1463.83 111.5,1483.5C 110.833,1483.5 110.167,1483.5 109.5,1483.5C 100.641,1477.38 90.9745,1475.88 80.5,1479C 72.9733,1480.84 65.9733,1483.84 59.5,1488C 55.4999,1492.17 52.6666,1497 51,1502.5C 39.256,1490.22 34.5894,1475.55 37,1458.5C 41.0902,1426.82 55.2569,1400.65 79.5,1380C 90.1101,1381.32 100.777,1382.66 111.5,1384C 118.667,1384.17 125.833,1384.33 133,1384.5C 205.188,1381.13 277.355,1377.63 349.5,1374C 333.416,1383.35 329.249,1396.51 337,1413.5C 347.65,1427.48 360.817,1430.31 376.5,1422C 388.18,1411.41 390.68,1398.91 384,1384.5C 380.065,1379.06 374.898,1375.39 368.5,1373.5C 372.167,1372.83 375.833,1372.17 379.5,1371.5 Z"/></g>
<g><path style="opacity:1" fill="#040404" d="M 573.5,1372.5 C 583.745,1371.57 586.745,1375.74 582.5,1385C 573.249,1388.42 569.415,1385.25 571,1375.5C 572.045,1374.63 572.878,1373.63 573.5,1372.5 Z"/></g>
<g><path style="opacity:1" fill="#070707" d="M 621.5,1372.5 C 631.823,1370.99 636.323,1375.33 635,1385.5C 632.081,1391.02 627.581,1392.86 621.5,1391C 613.547,1384.84 613.547,1378.67 621.5,1372.5 Z"/></g>
<g><path style="opacity:1" fill="#0a0a0a" d="M 419.5,1374.5 C 429.188,1374.7 431.854,1379.2 427.5,1388C 418.732,1390.86 414.899,1387.7 416,1378.5C 416.69,1376.65 417.856,1375.32 419.5,1374.5 Z"/></g>
<g><path style="opacity:1" fill="#0d0d0d" d="M 458.5,1396.5 C 468.11,1396.94 470.776,1401.44 466.5,1410C 457.961,1413.45 453.794,1410.62 454,1401.5C 455.366,1399.64 456.866,1397.97 458.5,1396.5 Z"/></g>
<g><path style="opacity:1" fill="#0c0c0c" d="M 644.5,1396.5 C 652.149,1396.31 655.315,1399.98 654,1407.5C 651.442,1411.21 647.942,1412.38 643.5,1411C 638.003,1405.68 638.336,1400.85 644.5,1396.5 Z"/></g>
<g><path style="opacity:1" fill="#0e0e0e" d="M 282.5,1399.5 C 293.818,1399.08 296.485,1403.58 290.5,1413C 285.59,1415.61 281.756,1414.45 279,1409.5C 278.182,1405.47 279.349,1402.14 282.5,1399.5 Z"/></g>
<g><path style="opacity:1" fill="#0e0104" d="M 1226.5,1401.5 C 1228.17,1401.5 1229.83,1401.5 1231.5,1401.5C 1224.13,1432.73 1228.63,1462.07 1245,1489.5C 1268.99,1520.4 1300.49,1532.9 1339.5,1527C 1358.87,1524.4 1375.03,1515.9 1388,1501.5C 1389.67,1498.83 1391.33,1496.17 1393,1493.5C 1396.68,1482.82 1400.34,1472.15 1404,1461.5C 1410.15,1454.84 1416.15,1455.18 1422,1462.5C 1430.91,1478.41 1441.74,1492.91 1454.5,1506C 1497.95,1541.55 1544.62,1546.22 1594.5,1520C 1623.93,1500.42 1636.43,1472.92 1632,1437.5C 1630.32,1427.3 1627.16,1417.64 1622.5,1408.5C 1623.87,1406.88 1625.54,1406.38 1627.5,1407C 1639.74,1433.82 1640.58,1460.99 1630,1488.5C 1615.04,1515.08 1592.54,1531.58 1562.5,1538C 1514.73,1548.03 1474.23,1535.19 1441,1499.5C 1432.84,1488.51 1425.17,1477.18 1418,1465.5C 1412.5,1459.66 1408.5,1460.66 1406,1468.5C 1403.24,1480.8 1398.9,1492.46 1393,1503.5C 1380.52,1518.17 1364.69,1527.33 1345.5,1531C 1307.01,1538.65 1274.18,1528.48 1247,1500.5C 1225.05,1470.75 1218.22,1437.75 1226.5,1401.5 Z"/></g>
<g><path style="opacity:1" fill="#0f0f0f" d="M 120.5,1489.5 C 117.68,1487.25 114.68,1485.25 111.5,1483.5C 94.9985,1463.83 93.1652,1442.83 106,1420.5C 124.046,1399.74 145.213,1395.91 169.5,1409C 190.632,1425.75 195.798,1446.58 185,1471.5C 168.528,1495.48 147.028,1501.48 120.5,1489.5 Z"/></g>
<g><path style="opacity:1" fill="#fefefe" d="M 2353.5,1404.5 C 2356.52,1404.34 2359.52,1404.5 2362.5,1405C 2383.21,1412.39 2404.38,1414.22 2426,1410.5C 2435.54,1414.29 2443.54,1420.29 2450,1428.5C 2456.67,1437.17 2462.34,1446.5 2467,1456.5C 2471.45,1468.07 2476.45,1479.4 2482,1490.5C 2484.5,1494.33 2487.67,1497.5 2491.5,1500C 2495.93,1500.79 2500.26,1500.46 2504.5,1499C 2511,1493.5 2515.5,1486.67 2518,1478.5C 2522.33,1465.17 2526.67,1451.83 2531,1438.5C 2533.86,1430.44 2537.53,1422.77 2542,1415.5C 2552.89,1427.73 2566.06,1430.9 2581.5,1425C 2589.89,1422.31 2597.56,1418.31 2604.5,1413C 2605.5,1412.33 2606.5,1412.33 2607.5,1413C 2627.13,1430.3 2646.47,1447.96 2665.5,1466C 2673.03,1472.52 2681.36,1477.85 2690.5,1482C 2705.43,1484.75 2713.93,1478.58 2716,1463.5C 2716.68,1458.18 2717.18,1452.84 2717.5,1447.5C 2727.08,1446.03 2736.08,1442.86 2744.5,1438C 2757.28,1429.87 2769.78,1421.37 2782,1412.5C 2802.62,1429.45 2822.95,1446.78 2843,1464.5C 2842.57,1468.38 2841.24,1472.05 2839,1475.5C 2797.26,1542.98 2737.76,1586.48 2660.5,1606C 2646.34,1609.21 2632.01,1611.21 2617.5,1612C 2587.75,1613.27 2558.08,1612.27 2528.5,1609C 2447,1600.83 2367,1585.17 2288.5,1562C 2261.76,1553.46 2236.09,1542.46 2211.5,1529C 2196.27,1520.45 2182.77,1509.61 2171,1496.5C 2166.86,1491.06 2163.36,1485.23 2160.5,1479C 2160.64,1478.23 2160.98,1477.56 2161.5,1477C 2180.93,1467.34 2190.59,1451.51 2190.5,1429.5C 2210.25,1435.2 2230.25,1436.03 2250.5,1432C 2262.27,1429.81 2273.94,1427.14 2285.5,1424C 2308.2,1417.15 2330.86,1410.65 2353.5,1404.5 Z"/></g>
<g><path style="opacity:1" fill="#fafafa" d="M 136.5,1406.5 C 161.198,1405.25 177.364,1416.25 185,1439.5C 187.834,1463.68 178.001,1480.18 155.5,1489C 129.519,1493.43 112.019,1483.26 103,1458.5C 99.8379,1431.8 111.005,1414.47 136.5,1406.5 Z"/></g>
<g><path style="opacity:1" fill="#0c0c0c" d="M 527.5,1406.5 C 534.029,1406.86 537.195,1410.19 537,1416.5C 534.928,1421.14 531.428,1422.64 526.5,1421C 522.788,1418.49 521.622,1414.99 523,1410.5C 524.397,1408.93 525.897,1407.6 527.5,1406.5 Z"/></g>
<g><path style="opacity:1" fill="#030303" d="M 275.5,1421.5 C 291.946,1420.47 303.446,1427.47 310,1442.5C 312.841,1468.37 301.341,1481.2 275.5,1481C 258.101,1475.59 250.268,1463.75 252,1445.5C 255.34,1432.99 263.174,1424.99 275.5,1421.5 Z"/></g>
<g><path style="opacity:1" fill="#030303" d="M 450.5,1421.5 C 466.517,1420.59 477.35,1427.59 483,1442.5C 484.5,1466.33 473.333,1477.5 449.5,1476C 434.434,1470.37 427.6,1459.54 429,1443.5C 432.35,1432.32 439.517,1424.98 450.5,1421.5 Z"/></g>
<g><path style="opacity:1" fill="#020202" d="M 138.5,1423.5 C 156.42,1422.61 166.753,1430.94 169.5,1448.5C 166.514,1467.34 155.514,1475.5 136.5,1473C 119.864,1465.09 115.03,1452.59 122,1435.5C 126.245,1429.64 131.745,1425.64 138.5,1423.5 Z"/></g>
<g><path style="opacity:1" fill="#0e0e0e" d="M 411.5,1423.5 C 420.33,1422.16 423.83,1425.83 422,1434.5C 416.967,1440 412.3,1439.66 408,1433.5C 407.182,1429.47 408.349,1426.14 411.5,1423.5 Z"/></g>
<g><path style="opacity:1" fill="#090909" d="M 612.5,1446.5 C 619.669,1445.51 623.169,1448.51 623,1455.5C 621.931,1459.29 619.431,1460.95 615.5,1460.5C 609.628,1459.79 607.462,1456.45 609,1450.5C 609.69,1448.65 610.856,1447.32 612.5,1446.5 Z"/></g>
<g><path style="opacity:1" fill="#060606" d="M 523.5,1449.5 C 534.818,1448.99 537.485,1453.49 531.5,1463C 520.105,1463.8 517.439,1459.3 523.5,1449.5 Z"/></g>
<g><path style="opacity:1" fill="#060606" d="M 379.5,1468.5 C 390.818,1467.99 393.485,1472.49 387.5,1482C 376.105,1482.8 373.439,1478.3 379.5,1468.5 Z"/></g>
<g><path style="opacity:1" fill="#090909" d="M 336.5,1469.5 C 344.167,1468.02 348,1471.02 348,1478.5C 344.797,1483.92 340.464,1484.92 335,1481.5C 332.66,1477.05 333.16,1473.05 336.5,1469.5 Z"/></g>
<g><path style="opacity:1" fill="#fbfbfb" d="M 85.5,1482.5 C 98.3781,1482.35 109.211,1487.02 118,1496.5C 120.481,1504.74 118.981,1512.24 113.5,1519C 93.1385,1523.37 74.3051,1519.54 57,1507.5C 56.3061,1501.45 58.1394,1496.28 62.5,1492C 69.8809,1487.93 77.5476,1484.77 85.5,1482.5 Z"/></g>
<g><path style="opacity:1" fill="#b1b1b1" d="M 109.5,1483.5 C 110.167,1483.5 110.833,1483.5 111.5,1483.5C 114.68,1485.25 117.68,1487.25 120.5,1489.5C 119.833,1489.5 119.5,1489.83 119.5,1490.5C 116.143,1488.13 112.81,1485.8 109.5,1483.5 Z"/></g>
<g><path style="opacity:1" fill="#d80062" d="M 814.5,1491.5 C 816.833,1491.5 819.167,1491.5 821.5,1491.5C 825.182,1501.2 829.682,1510.53 835,1519.5C 835.667,1520.5 835.667,1521.5 835,1522.5C 827.585,1527.46 820.085,1532.29 812.5,1537C 778.348,1564.24 744.015,1591.24 709.5,1618C 703.019,1628.13 698.019,1638.96 694.5,1650.5C 646.594,1636.11 598.927,1620.94 551.5,1605C 548.231,1601.55 547.731,1597.71 550,1593.5C 584.924,1573.29 620.09,1553.45 655.5,1534C 696.204,1522.46 736.871,1510.79 777.5,1499C 789.877,1496.02 802.21,1493.52 814.5,1491.5 Z"/></g>
<g><path style="opacity:1" fill="#fdfdfd" d="M 2048.5,1491.5 C 2067.03,1498.76 2085.37,1506.6 2103.5,1515C 2131.95,1529.56 2160.62,1543.56 2189.5,1557C 2231.48,1579.11 2260.32,1612.61 2276,1657.5C 2277.47,1662.24 2279.14,1666.91 2281,1671.5C 2288.41,1727.96 2293.25,1784.63 2295.5,1841.5C 2296.22,1867.86 2292.38,1893.53 2284,1918.5C 2275.49,1936.34 2263.33,1951.17 2247.5,1963C 2243.39,1965.57 2239.05,1967.24 2234.5,1968C 2244.65,1960.18 2252.15,1950.35 2257,1938.5C 2258.95,1929.24 2256.45,1921.4 2249.5,1915C 2248,1914.49 2246.84,1914.99 2246,1916.5C 2247.66,1920.15 2249.66,1923.81 2252,1927.5C 2252.79,1931.93 2252.46,1936.26 2251,1940.5C 2245.21,1950.96 2237.37,1959.46 2227.5,1966C 2226.66,1967.01 2226.33,1968.18 2226.5,1969.5C 2209.56,1966.2 2194.23,1959.36 2180.5,1949C 2164.96,1928.05 2155.46,1904.55 2152,1878.5C 2148.08,1831.19 2144.41,1783.85 2141,1736.5C 2140.99,1714.63 2132.15,1697.47 2114.5,1685C 2099.96,1676.06 2084.62,1668.73 2068.5,1663C 2059.83,1655.67 2051.17,1648.33 2042.5,1641C 2048.12,1636.92 2048.79,1632.26 2044.5,1627C 2038.42,1623.92 2034.09,1625.42 2031.5,1631.5C 2016.1,1618.09 2000.43,1605.09 1984.5,1592.5C 1988.79,1588.71 1992.96,1584.71 1997,1580.5C 2002.78,1602.47 2016.61,1610.64 2038.5,1605C 2049.07,1597.94 2052.9,1588.1 2050,1575.5C 2045.36,1560.54 2035.2,1552.7 2019.5,1552C 2032.24,1533.35 2041.91,1513.18 2048.5,1491.5 Z"/></g>
<g><path style="opacity:1" fill="#0a0a0a" d="M 277.5,1510.5 C 276.167,1510.5 274.833,1510.5 273.5,1510.5C 269.876,1509.6 267.876,1507.26 267.5,1503.5C 269.409,1496.5 273.743,1494.67 280.5,1498C 283.811,1503.34 282.811,1507.51 277.5,1510.5 Z"/></g>
<g><path style="opacity:1" fill="#9d9d9d" d="M 273.5,1510.5 C 274.833,1510.5 276.167,1510.5 277.5,1510.5C 278.209,1511.4 279.209,1511.74 280.5,1511.5C 279.432,1512.43 278.099,1512.77 276.5,1512.5C 275.5,1511.83 274.5,1511.17 273.5,1510.5 Z"/></g>
<g><path style="opacity:1" fill="#060606" d="M 2059.5,1519.5 C 2066.3,1518.22 2070.3,1520.89 2071.5,1527.5C 2070.38,1533.73 2066.72,1535.9 2060.5,1534C 2055.58,1529.46 2055.24,1524.62 2059.5,1519.5 Z"/></g>
<g><path style="opacity:1" fill="#d90062" d="M 837.5,1526.5 C 838.496,1526.41 839.329,1526.75 840,1527.5C 856.327,1553.16 876.827,1575 901.5,1593C 913.721,1601.4 926.054,1609.56 938.5,1617.5C 934.667,1623.17 930.833,1628.83 927,1634.5C 914,1659.17 901,1683.83 888,1708.5C 825.232,1714.09 762.399,1719.59 699.5,1725C 691.063,1725.94 682.73,1725.6 674.5,1724C 670.874,1721.75 669.707,1718.58 671,1714.5C 684.139,1684.08 697.472,1653.75 711,1623.5C 745.833,1596 780.667,1568.5 815.5,1541C 823.009,1536.3 830.343,1531.47 837.5,1526.5 Z"/></g>
<g><path style="opacity:1" fill="#030303" d="M 2133.5,1547.5 C 2160.94,1548.77 2173.77,1563.1 2172,1590.5C 2165.31,1608.75 2152.48,1615.25 2133.5,1610C 2114.84,1600.18 2108.01,1585.01 2113,1564.5C 2117.26,1555.63 2124.09,1549.97 2133.5,1547.5 Z"/></g>
<g><path style="opacity:1" fill="#090909" d="M 2088.5,1556.5 C 2097.21,1556.04 2100.71,1560.04 2099,1568.5C 2094.8,1573.74 2090.46,1573.74 2086,1568.5C 2083.45,1563.72 2084.29,1559.72 2088.5,1556.5 Z"/></g>
<g><path style="opacity:1" fill="#f9d598" d="M 1979.5,1596.5 C 1982.12,1597.48 1984.45,1598.98 1986.5,1601C 1968.61,1608.37 1953.45,1619.54 1941,1634.5C 1926.12,1650.9 1914.79,1669.57 1907,1690.5C 1898.5,1677.5 1890,1664.5 1881.5,1651.5C 1917.62,1638.79 1950.29,1620.45 1979.5,1596.5 Z"/></g>
<g><path style="opacity:1" fill="#0e0e0e" d="M 2191.5,1600.5 C 2202.37,1600.82 2205.37,1605.66 2200.5,1615C 2192.04,1617.54 2187.87,1614.38 2188,1605.5C 2189,1603.68 2190.16,1602.01 2191.5,1600.5 Z"/></g>
<g><path style="opacity:1" fill="#fcfcfc" d="M 1985.5,1606.5 C 1987.2,1606.34 1988.87,1606.51 1990.5,1607C 2001.29,1612.45 2010.95,1619.45 2019.5,1628C 1996.93,1635.03 1978.43,1647.86 1964,1666.5C 1947.52,1685.46 1937.52,1707.46 1934,1732.5C 1925.49,1722.32 1918.16,1711.32 1912,1699.5C 1911.33,1697.17 1911.33,1694.83 1912,1692.5C 1922.88,1663.28 1940.38,1638.78 1964.5,1619C 1971.23,1614.3 1978.23,1610.14 1985.5,1606.5 Z"/></g>
<g><path style="opacity:1" fill="#d90062" d="M 942.5,1619.5 C 988.34,1641.84 1036.34,1657.67 1086.5,1667C 1088.42,1667.36 1090.09,1668.19 1091.5,1669.5C 1083.11,1700.31 1074.27,1730.98 1065,1761.5C 992.913,1800.79 920.747,1839.96 848.5,1879C 840.052,1878.52 836.885,1874.02 839,1865.5C 848.83,1829.18 858.497,1792.84 868,1756.5C 891.829,1710.17 916.663,1664.5 942.5,1619.5 Z"/></g>
<g><path style="opacity:1" fill="#060606" d="M 2092.5,1619.5 C 2101.71,1618.54 2105.54,1622.54 2104,1631.5C 2099.67,1635.5 2095.33,1635.5 2091,1631.5C 2088.78,1627.13 2089.28,1623.13 2092.5,1619.5 Z"/></g>
<g><path style="opacity:1" fill="#d80062" d="M 578.5,1619.5 C 615.974,1631.77 653.64,1643.44 691.5,1654.5C 684.94,1670.79 677.94,1686.96 670.5,1703C 629.296,1720.92 590.629,1742.92 554.5,1769C 532.167,1786.5 509.833,1804 487.5,1821.5C 487.167,1821 486.833,1820.5 486.5,1820C 498.869,1781.23 511.035,1742.39 523,1703.5C 537.795,1672.91 556.295,1644.91 578.5,1619.5 Z"/></g>
<g><path style="opacity:1" fill="#fdd99a" d="M 2021.5,1632.5 C 2022.87,1632.34 2024.21,1632.51 2025.5,1633C 2038.46,1644.81 2051.8,1656.14 2065.5,1667C 2072.01,1673.35 2078.35,1679.85 2084.5,1686.5C 2084,1686.83 2083.5,1687.17 2083,1687.5C 2069.78,1684.15 2056.95,1685.31 2044.5,1691C 2011.1,1703.74 1984.93,1725.24 1966,1755.5C 1957.61,1748.78 1948.95,1742.45 1940,1736.5C 1939.79,1724.68 1942.12,1713.35 1947,1702.5C 1958.24,1679.5 1974.08,1660.33 1994.5,1645C 2003.35,1640.24 2012.35,1636.07 2021.5,1632.5 Z"/></g>
<g><path style="opacity:1" fill="#060606" d="M 2254.5,1645.5 C 2262.61,1644.12 2266.45,1647.45 2266,1655.5C 2261.92,1661.84 2257.25,1662.17 2252,1656.5C 2250.81,1652.22 2251.65,1648.55 2254.5,1645.5 Z"/></g>
<g><path style="opacity:1" fill="#fdfdfd" d="M 1872.5,1653.5 C 1874.29,1653.21 1875.95,1653.55 1877.5,1654.5C 1897.92,1686.33 1918.08,1718.33 1938,1750.5C 1966.71,1796.01 1970.04,1843.35 1948,1892.5C 1928.73,1923.44 1909.06,1954.1 1889,1984.5C 1874.02,2006.16 1857.52,2026.66 1839.5,2046C 1826.98,2058.1 1812.64,2067.43 1796.5,2074C 1779.01,2080.88 1761.01,2082.88 1742.5,2080C 1741.83,2079.67 1741.17,2079.33 1740.5,2079C 1754.14,2078.43 1766.8,2074.76 1778.5,2068C 1783.78,2061.5 1785.11,2054.33 1782.5,2046.5C 1781.83,2046.83 1781.17,2047.17 1780.5,2047.5C 1780.63,2054.94 1777.97,2061.11 1772.5,2066C 1759.67,2071.8 1746.33,2074.8 1732.5,2075C 1721.17,2064.17 1713,2051.34 1708,2036.5C 1707.36,2011.4 1714.03,1988.4 1728,1967.5C 1754.06,1929.77 1779.72,1891.77 1805,1853.5C 1811.85,1840.91 1812.85,1827.91 1808,1814.5C 1801.18,1799.51 1792.84,1785.51 1783,1772.5C 1759.92,1743.05 1735.42,1714.71 1709.5,1687.5C 1728.82,1684.76 1748.15,1682.09 1767.5,1679.5C 1768.5,1679.83 1769.5,1680.17 1770.5,1680.5C 1766.12,1695.84 1771.12,1707.01 1785.5,1714C 1802.47,1717.93 1813.97,1711.77 1820,1695.5C 1821.53,1686.1 1819.03,1677.93 1812.5,1671C 1832.98,1666.38 1852.98,1660.55 1872.5,1653.5 Z"/></g>
<g><path style="opacity:1" fill="#030303" d="M 2161.5,1658.5 C 2181.91,1659.08 2190.41,1669.41 2187,1689.5C 2181.31,1699.73 2172.81,1702.89 2161.5,1699C 2150.22,1692.78 2146.05,1683.28 2149,1670.5C 2151.74,1664.92 2155.91,1660.92 2161.5,1658.5 Z"/></g>
<g><path style="opacity:1" fill="#060606" d="M 2212.5,1662.5 C 2219.3,1661.22 2223.3,1663.89 2224.5,1670.5C 2223.65,1677.1 2219.98,1679.27 2213.5,1677C 2208.51,1672.53 2208.17,1667.7 2212.5,1662.5 Z"/></g>
<g><path style="opacity:1" fill="#060606" d="M 1853.5,1664.5 C 1864.76,1663.93 1867.43,1668.43 1861.5,1678C 1850.11,1678.8 1847.44,1674.3 1853.5,1664.5 Z"/></g>
<g><path style="opacity:1" fill="#fcfcfc" d="M 2062.5,1690.5 C 2072.03,1690.04 2081.37,1691.21 2090.5,1694C 2093.29,1699.09 2096.46,1703.92 2100,1708.5C 2103.29,1715.05 2105.95,1721.72 2108,1728.5C 2084.99,1723.06 2062.83,1725.56 2041.5,1736C 2019.92,1746.25 2002.75,1761.42 1990,1781.5C 1986.59,1777.01 1983.42,1772.34 1980.5,1767.5C 1977.13,1764.49 1973.79,1761.49 1970.5,1758.5C 1992.17,1723.66 2022.84,1701 2062.5,1690.5 Z"/></g>
<g><path style="opacity:1" fill="#0b0b0b" d="M 1856.5,1705.5 C 1863.57,1705.26 1866.73,1708.59 1866,1715.5C 1863.93,1720.14 1860.43,1721.64 1855.5,1720C 1850,1714.68 1850.34,1709.85 1856.5,1705.5 Z"/></g>
<g><path style="opacity:1" fill="#020202" d="M 2240.5,1707.5 C 2260.08,1705.37 2273.58,1713.37 2281,1731.5C 2285.73,1757.76 2274.89,1770.92 2248.5,1771C 2224.95,1762.06 2216.78,1745.56 2224,1721.5C 2228.17,1715.15 2233.67,1710.48 2240.5,1707.5 Z"/></g>
<g><path style="opacity:1" fill="#d90062" d="M 842.5,1717.5 C 848.808,1717.1 854.808,1718.27 860.5,1721C 838.039,1766.09 820.206,1812.92 807,1861.5C 801.714,1883.31 797.381,1905.31 794,1927.5C 790.917,1957.83 787.917,1988.16 785,2018.5C 766,1984.5 747,1950.5 728,1916.5C 712.067,1879.53 700.4,1841.2 693,1801.5C 689.263,1777.94 686.429,1754.27 684.5,1730.5C 737.325,1726.33 789.991,1721.99 842.5,1717.5 Z"/></g>
<g><path style="opacity:1" fill="#0b0b0b" d="M 2190.5,1718.5 C 2197.99,1718.48 2201.49,1722.15 2201,1729.5C 2196.83,1735.76 2192.17,1736.09 2187,1730.5C 2185.59,1725.6 2186.76,1721.6 2190.5,1718.5 Z"/></g>
<g><path style="opacity:1" fill="#020202" d="M 1882.5,1720.5 C 1908.7,1719.2 1920.86,1731.53 1919,1757.5C 1912.82,1774.52 1900.65,1781.68 1882.5,1779C 1866.28,1772.73 1859.11,1760.9 1861,1743.5C 1864.62,1732.38 1871.79,1724.72 1882.5,1720.5 Z"/></g>
<g><path style="opacity:1" fill="#0e0e0e" d="M 1772.5,1728.5 C 1780.66,1727.82 1784.16,1731.49 1783,1739.5C 1777.92,1744.99 1773.25,1744.65 1769,1738.5C 1768.18,1734.47 1769.35,1731.14 1772.5,1728.5 Z"/></g>
<g><path style="opacity:1" fill="#fdd99a" d="M 2076.5,1730.5 C 2088.3,1729.93 2099.8,1731.26 2111,1734.5C 2118.72,1758.01 2121.22,1782.01 2118.5,1806.5C 2083.38,1796.78 2049.71,1800.28 2017.5,1817C 2007.51,1822.76 1999.01,1830.26 1992,1839.5C 1993.11,1828.19 1994.28,1816.86 1995.5,1805.5C 1995.87,1799.1 1994.87,1792.94 1992.5,1787C 2012.07,1755.59 2040.07,1736.76 2076.5,1730.5 Z"/></g>
<g><path style="opacity:1" fill="#090909" d="M 1823.5,1753.5 C 1833.11,1753.94 1835.78,1758.44 1831.5,1767C 1822.25,1770.42 1818.42,1767.25 1820,1757.5C 1821.38,1756.29 1822.54,1754.96 1823.5,1753.5 Z"/></g>
<g><path style="opacity:1" fill="#0e0e0e" d="M 2164.5,1764.5 C 2172.5,1764 2176.33,1767.67 2176,1775.5C 2171.78,1781.74 2167.11,1782.08 2162,1776.5C 2159.45,1771.72 2160.29,1767.72 2164.5,1764.5 Z"/></g>
<g><path style="opacity:1" fill="#0b0b0b" d="M 2215.5,1772.5 C 2222.99,1772.48 2226.49,1776.15 2226,1783.5C 2221.83,1789.76 2217.17,1790.09 2212,1784.5C 2210.59,1779.6 2211.76,1775.6 2215.5,1772.5 Z"/></g>
<g><path style="opacity:1" fill="#070707" d="M 1915.5,1790.5 C 1923.18,1791.02 1926.01,1795.02 1924,1802.5C 1919.2,1806.75 1914.87,1806.42 1911,1801.5C 1909.39,1796.44 1910.89,1792.77 1915.5,1790.5 Z"/></g>
<g><path style="opacity:1" fill="#d90062" d="M 1020.5,1791.5 C 1023.03,1793.51 1024.86,1796.18 1026,1799.5C 1051.65,1866.17 1086.98,1926.84 1132,1981.5C 1151.5,2003 1171,2024.5 1190.5,2046C 1149.03,2037.63 1107.69,2028.3 1066.5,2018C 1008.6,1994.9 955.602,1963.9 907.5,1925C 890.687,1910.1 873.687,1895.43 856.5,1881C 911.389,1851.39 966.055,1821.56 1020.5,1791.5 Z"/></g>
<g><path style="opacity:1" fill="#0b0b0b" d="M 2267.5,1792.5 C 2276.21,1792.04 2279.71,1796.04 2278,1804.5C 2272.64,1810.1 2267.97,1809.43 2264,1802.5C 2263.33,1800.5 2263.33,1798.5 2264,1796.5C 2265.38,1795.29 2266.54,1793.96 2267.5,1792.5 Z"/></g>
<g><path style="opacity:1" fill="#fcfcfc" d="M 2065.5,1806.5 C 2082.34,1805.85 2099.01,1807.18 2115.5,1810.5C 2114.22,1822.88 2112.56,1835.22 2110.5,1847.5C 2059.54,1838.51 2017.04,1853.18 1983,1891.5C 1983.95,1878.05 1985.95,1864.72 1989,1851.5C 2007.68,1825.01 2033.18,1810.01 2065.5,1806.5 Z"/></g>
<g><path style="opacity:1" fill="#040404" d="M 2177.5,1807.5 C 2187.56,1807.11 2194.73,1811.44 2199,1820.5C 2200.27,1840.24 2191.77,1846.41 2173.5,1839C 2167.31,1833.1 2165.15,1825.93 2167,1817.5C 2169.08,1812.58 2172.58,1809.25 2177.5,1807.5 Z"/></g>
<g><path style="opacity:1" fill="#020202" d="M 1848.5,1816.5 C 1865.51,1815.68 1873.68,1823.68 1873,1840.5C 1868.03,1853.4 1858.86,1857.9 1845.5,1854C 1834.19,1846.4 1831.69,1836.57 1838,1824.5C 1840.94,1820.96 1844.44,1818.3 1848.5,1816.5 Z"/></g>
<g><path style="opacity:1" fill="#0e0e0e" d="M 2236.5,1837.5 C 2259.9,1836.74 2272.9,1847.91 2275.5,1871C 2274.9,1888.44 2265.9,1897.94 2248.5,1899.5C 2228.37,1896.87 2217.71,1885.37 2216.5,1865C 2216.95,1851.25 2223.62,1842.09 2236.5,1837.5 Z"/></g>
<g><path style="opacity:1" fill="#f7f7f7" d="M 2237.5,1842.5 C 2257.36,1841.87 2268.36,1851.37 2270.5,1871C 2269.49,1888.01 2260.49,1895.67 2243.5,1894C 2225.5,1887.18 2218.67,1874.34 2223,1855.5C 2226.16,1849.16 2231,1844.83 2237.5,1842.5 Z"/></g>
<g><path style="opacity:1" fill="#0c0c0c" d="M 1896.5,1846.5 C 1904.2,1846.36 1907.37,1850.03 1906,1857.5C 1900.83,1863.09 1896.17,1862.76 1892,1856.5C 1891.08,1852.02 1892.58,1848.68 1896.5,1846.5 Z"/></g>
<g><path style="opacity:1" fill="#fdd99a" d="M 2066.5,1851.5 C 2081.51,1851.36 2096.51,1851.69 2111.5,1852.5C 2106.96,1891.02 2099.8,1929.02 2090,1966.5C 2083.88,1987.08 2073.88,2005.41 2060,2021.5C 2052.01,2029.16 2043.18,2035.66 2033.5,2041C 2029.98,2042.73 2026.32,2043.4 2022.5,2043C 2032.61,2037.89 2040.45,2030.39 2046,2020.5C 2048.49,2012.74 2047.66,2005.41 2043.5,1998.5C 2038.79,1999.92 2038.29,2002.26 2042,2005.5C 2043.56,2012.51 2042.23,2018.84 2038,2024.5C 2030.5,2032.24 2021.84,2038.24 2012,2042.5C 2000.23,2036.73 1990.23,2028.73 1982,2018.5C 1975.13,2002.4 1971.96,1985.57 1972.5,1968C 1972.55,1959.47 1973.05,1950.97 1974,1942.5C 1976.22,1929.87 1978.22,1917.21 1980,1904.5C 2000.9,1873.75 2029.73,1856.08 2066.5,1851.5 Z"/></g>
<g><path style="opacity:1" fill="#040404" d="M 2239.5,1851.5 C 2258.79,1851.76 2265.63,1861.1 2260,1879.5C 2249.64,1888.24 2240.31,1887.24 2232,1876.5C 2227.05,1865.77 2229.55,1857.44 2239.5,1851.5 Z"/></g>
<g><path style="opacity:1" fill="#0f0f0f" d="M 1940.5,1855.5 C 1950.05,1855.89 1952.71,1860.39 1948.5,1869C 1939.96,1872.45 1935.79,1869.62 1936,1860.5C 1937.02,1858.31 1938.52,1856.65 1940.5,1855.5 Z"/></g>
<g><path style="opacity:1" fill="#090909" d="M 1844.5,1875.5 C 1854.11,1875.94 1856.78,1880.44 1852.5,1889C 1843.24,1892.29 1839.41,1889.13 1841,1879.5C 1842.1,1878.05 1843.27,1876.72 1844.5,1875.5 Z"/></g>
<g><path style="opacity:1" fill="#020202" d="M 1880.5,1892.5 C 1906.19,1891.68 1918.02,1904.02 1916,1929.5C 1910.12,1947.01 1897.95,1954.17 1879.5,1951C 1863.58,1945 1856.41,1933.5 1858,1916.5C 1861.27,1904.4 1868.77,1896.4 1880.5,1892.5 Z"/></g>
<g><path style="opacity:1" fill="#090909" d="M 1797.5,1895.5 C 1807.05,1895.89 1809.71,1900.39 1805.5,1909C 1796.32,1912.32 1792.49,1909.16 1794,1899.5C 1795.1,1898.05 1796.27,1896.72 1797.5,1895.5 Z"/></g>
<g><path style="opacity:1" fill="#070707" d="M 1833.5,1927.5 C 1843.11,1927.94 1845.78,1932.44 1841.5,1941C 1832.32,1944.32 1828.49,1941.16 1830,1931.5C 1831.38,1930.29 1832.54,1928.96 1833.5,1927.5 Z"/></g>
<g><path style="opacity:1" fill="#0f0e0c" d="M 2043.5,1929.5 C 2059.63,1927.49 2070.13,1934.15 2075,1949.5C 2077.08,1960.06 2075.08,1969.73 2069,1978.5C 2056.69,1989.47 2044.69,1989.13 2033,1977.5C 2026.11,1966.82 2024.78,1955.49 2029,1943.5C 2032.43,1937.23 2037.27,1932.56 2043.5,1929.5 Z"/></g>
<g><path style="opacity:1" fill="#050505" d="M 1777.5,1932.5 C 1795.09,1933.35 1800.92,1942.02 1795,1958.5C 1784.92,1968.32 1775.59,1967.66 1767,1956.5C 1763.17,1945.18 1766.67,1937.18 1777.5,1932.5 Z"/></g>
<g><path style="opacity:1" fill="#f4f4f4" d="M 2044.5,1934.5 C 2057.49,1932.66 2065.99,1937.99 2070,1950.5C 2073.18,1964.29 2068.68,1974.46 2056.5,1981C 2044.07,1981.92 2035.91,1976.42 2032,1964.5C 2029.29,1951.42 2033.46,1941.42 2044.5,1934.5 Z"/></g>
<g><path style="opacity:1" fill="#050505" d="M 2047.5,1941.5 C 2061.74,1942.58 2067.24,1950.25 2064,1964.5C 2060.49,1971.9 2054.65,1974.74 2046.5,1973C 2037.22,1966.42 2035.06,1957.92 2040,1947.5C 2042.11,1944.88 2044.61,1942.88 2047.5,1941.5 Z"/></g>
<g><path style="opacity:1" fill="#090909" d="M 1864.5,1969.5 C 1874.53,1968.73 1877.53,1972.9 1873.5,1982C 1864.65,1985.67 1860.48,1982.84 1861,1973.5C 1862.03,1971.97 1863.2,1970.64 1864.5,1969.5 Z"/></g>
<g><path style="opacity:1" fill="#0e0e0e" d="M 1801.5,1984.5 C 1818.59,1982.46 1830.09,1989.46 1836,2005.5C 1838.7,2023.44 1831.53,2035.27 1814.5,2041C 1797.52,2043.35 1786.02,2036.52 1780,2020.5C 1777.22,2002.37 1784.39,1990.37 1801.5,1984.5 Z"/></g>
<g><path style="opacity:1" fill="#f4f4f4" d="M 1800.5,1989.5 C 1818.73,1987.25 1829.07,1995.09 1831.5,2013C 1830.25,2027.92 1822.08,2035.75 1807,2036.5C 1789.64,2033.48 1782.31,2023.15 1785,2005.5C 1788.36,1998.31 1793.52,1992.98 1800.5,1989.5 Z"/></g>
<g><path style="opacity:1" fill="#020202" d="M 1801.5,1997.5 C 1817.54,1995.71 1824.71,2002.71 1823,2018.5C 1818.77,2027.03 1811.94,2030.2 1802.5,2028C 1792.37,2022.28 1789.87,2014.12 1795,2003.5C 1797.06,2001.27 1799.23,1999.27 1801.5,1997.5 Z"/></g>
</svg>
